<svg id="visual" viewBox="0 0 1920 1080" width="1920" height="1080" xmlns="http://www.w3.org/2000/svg" xmlns:xlink="http://www.w3.org/1999/xlink" version="1.1"><rect x="0" y="0" width="1920" height="1080" fill="#00FFFF"></rect><g fill="#28282E"><path d="M0 -143.5L32.2 -44.3L136.4 -44.3L52.1 16.9L84.3 116.1L0 54.8L-84.3 116.1L-52.1 16.9L-136.4 -44.3L-32.2 -44.3Z" transform="translate(1116 256)"></path><path d="M0 -53.8L12.1 -16.6L51.2 -16.6L19.5 6.4L31.6 43.5L0 20.5L-31.6 43.5L-19.5 6.4L-51.2 -16.6L-12.1 -16.6Z" transform="translate(635 613)"></path><path d="M0 -136.9L30.7 -42.3L130.2 -42.3L49.7 16.2L80.4 110.7L0 52.3L-80.4 110.7L-49.7 16.2L-130.2 -42.3L-30.7 -42.3Z" transform="translate(426 252)"></path><path d="M0 -68L15.3 -21L64.6 -21L24.7 8L39.9 55L0 26L-39.9 55L-24.7 8L-64.6 -21L-15.3 -21Z" transform="translate(255 526)"></path><path d="M0 -72.7L16.3 -22.5L69.1 -22.5L26.4 8.6L42.7 58.8L0 27.8L-42.7 58.8L-26.4 8.6L-69.1 -22.5L-16.3 -22.5Z" transform="translate(1324 548)"></path><path d="M0 -65.1L14.6 -20.1L61.9 -20.1L23.7 7.7L38.3 52.7L0 24.9L-38.3 52.7L-23.7 7.7L-61.9 -20.1L-14.6 -20.1Z" transform="translate(932 789)"></path><path d="M0 -57.6L12.9 -17.8L54.8 -17.8L20.9 6.8L33.8 46.6L0 22L-33.8 46.6L-20.9 6.8L-54.8 -17.8L-12.9 -17.8Z" transform="translate(1564 963)"></path><path d="M0 -117L26.3 -36.2L111.3 -36.2L42.5 13.8L68.8 94.7L0 44.7L-68.8 94.7L-42.5 13.8L-111.3 -36.2L-26.3 -36.2Z" transform="translate(348 984)"></path><path d="M0 -54.7L12.3 -16.9L52.1 -16.9L19.9 6.5L32.2 44.3L0 20.9L-32.2 44.3L-19.9 6.5L-52.1 -16.9L-12.3 -16.9Z" transform="translate(764 1046)"></path><path d="M0 -139.7L31.4 -43.2L132.8 -43.2L50.7 16.5L82.1 113L0 53.4L-82.1 113L-50.7 16.5L-132.8 -43.2L-31.4 -43.2Z" transform="translate(1885 1012)"></path><path d="M0 -68L15.3 -21L64.6 -21L24.7 8L39.9 55L0 26L-39.9 55L-24.7 8L-64.6 -21L-15.3 -21Z" transform="translate(1916 465)"></path><path d="M0 -104.8L23.5 -32.4L99.6 -32.4L38.1 12.4L61.6 84.8L0 40L-61.6 84.8L-38.1 12.4L-99.6 -32.4L-23.5 -32.4Z" transform="translate(1667 279)"></path><path d="M0 -100L22.5 -30.9L95.1 -30.9L36.3 11.8L58.8 80.9L0 38.2L-58.8 80.9L-36.3 11.8L-95.1 -30.9L-22.5 -30.9Z" transform="translate(48 26)"></path><path d="M0 -65.1L14.6 -20.1L61.9 -20.1L23.7 7.7L38.3 52.7L0 24.9L-38.3 52.7L-23.7 7.7L-61.9 -20.1L-14.6 -20.1Z" transform="translate(815 8)"></path><path d="M0 -90.6L20.3 -28L86.2 -28L32.9 10.7L53.3 73.3L0 34.6L-53.3 73.3L-32.9 10.7L-86.2 -28L-20.3 -28Z" transform="translate(1220 978)"></path></g></svg>