<svg id="visual" viewBox="0 0 1920 1080" width="1920" height="1080" xmlns="http://www.w3.org/2000/svg" xmlns:xlink="http://www.w3.org/1999/xlink" version="1.1"><rect x="0" y="0" width="1920" height="1080" fill="#28282E"></rect><g fill="none" stroke="#00FFFF" stroke-width="4"><path d="M0 -143.5L32.2 -44.3L136.4 -44.3L52.1 16.9L84.3 116.1L0 54.8L-84.3 116.1L-52.1 16.9L-136.4 -44.3L-32.2 -44.3Z" transform="translate(1051 857)"></path><path d="M0 -53.8L12.1 -16.6L51.2 -16.6L19.5 6.4L31.6 43.5L0 20.5L-31.6 43.5L-19.5 6.4L-51.2 -16.6L-12.1 -16.6Z" transform="translate(746 242)"></path><path d="M0 -80.2L18 -24.8L76.3 -24.8L29.1 9.5L47.2 64.9L0 30.6L-47.2 64.9L-29.1 9.5L-76.3 -24.8L-18 -24.8Z" transform="translate(450 131)"></path><path d="M0 -100L22.5 -30.9L95.1 -30.9L36.3 11.8L58.8 80.9L0 38.2L-58.8 80.9L-36.3 11.8L-95.1 -30.9L-22.5 -30.9Z" transform="translate(163 429)"></path><path d="M0 -75.5L17 -23.3L71.8 -23.3L27.4 8.9L44.4 61.1L0 28.8L-44.4 61.1L-27.4 8.9L-71.8 -23.3L-17 -23.3Z" transform="translate(588 551)"></path><path d="M0 -86.8L19.5 -26.8L82.6 -26.8L31.5 10.2L51 70.2L0 33.2L-51 70.2L-31.5 10.2L-82.6 -26.8L-19.5 -26.8Z" transform="translate(1565 305)"></path><path d="M0 -60.4L13.6 -18.7L57.4 -18.7L21.9 7.1L35.5 48.9L0 23.1L-35.5 48.9L-21.9 7.1L-57.4 -18.7L-13.6 -18.7Z" transform="translate(781 1045)"></path><path d="M0 -111.4L25 -34.4L105.9 -34.4L40.5 13.1L65.5 90.1L0 42.5L-65.5 90.1L-40.5 13.1L-105.9 -34.4L-25 -34.4Z" transform="translate(110 813)"></path><path d="M0 -115.1L25.9 -35.6L109.5 -35.6L41.8 13.6L67.7 93.2L0 44L-67.7 93.2L-41.8 13.6L-109.5 -35.6L-25.9 -35.6Z" transform="translate(1835 805)"></path><path d="M0 -140.6L31.6 -43.5L133.7 -43.5L51.1 16.6L82.7 113.8L0 53.7L-82.7 113.8L-51.1 16.6L-133.7 -43.5L-31.6 -43.5Z" transform="translate(1859 142)"></path><path d="M0 -115.1L25.9 -35.6L109.5 -35.6L41.8 13.6L67.7 93.2L0 44L-67.7 93.2L-41.8 13.6L-109.5 -35.6L-25.9 -35.6Z" transform="translate(1579 1073)"></path><path d="M0 -54.7L12.3 -16.9L52.1 -16.9L19.9 6.5L32.2 44.3L0 20.9L-32.2 44.3L-19.9 6.5L-52.1 -16.9L-12.3 -16.9Z" transform="translate(530 871)"></path><path d="M0 -68.9L15.5 -21.3L65.5 -21.3L25 8.1L40.5 55.7L0 26.3L-40.5 55.7L-25 8.1L-65.5 -21.3L-15.5 -21.3Z" transform="translate(983 510)"></path><path d="M0 -121.8L27.3 -37.6L115.8 -37.6L44.2 14.4L71.6 98.5L0 46.5L-71.6 98.5L-44.2 14.4L-115.8 -37.6L-27.3 -37.6Z" transform="translate(1268 233)"></path><path d="M0 -108.5L24.4 -33.5L103.2 -33.5L39.4 12.8L63.8 87.8L0 41.5L-63.8 87.8L-39.4 12.8L-103.2 -33.5L-24.4 -33.5Z" transform="translate(1373 685)"></path></g></svg>