<svg xmlns="http://www.w3.org/2000/svg" version="1.1" xmlns:xlink="http://www.w3.org/1999/xlink" xmlns:svgjs="http://svgjs.dev/svgjs" viewBox="0 0 800 800" opacity="1"><g fill="none" stroke-width="3.25" stroke="#00ffff" stroke-linecap="square" transform="matrix(0.6,0,0,0.6,160,160.00000610351563)"><line x1="167" y1="400" x2="633" y2="400" transform="rotate(0, 400, 400)" opacity="0.71"></line><line x1="139.5" y1="400" x2="660.5" y2="400" transform="rotate(1, 400, 400)" opacity="0.07"></line><line x1="92.5" y1="400" x2="707.5" y2="400" transform="rotate(2, 400, 400)" opacity="0.60"></line><line x1="165" y1="400" x2="635" y2="400" transform="rotate(3, 400, 400)" opacity="0.70"></line><line x1="166" y1="400" x2="634" y2="400" transform="rotate(4, 400, 400)" opacity="0.56"></line><line x1="187" y1="400" x2="613" y2="400" transform="rotate(5, 400, 400)" opacity="0.47"></line><line x1="54.5" y1="400" x2="745.5" y2="400" transform="rotate(6, 400, 400)" opacity="0.76"></line><line x1="104" y1="400" x2="696" y2="400" transform="rotate(7, 400, 400)" opacity="0.26"></line><line x1="148" y1="400" x2="652" y2="400" transform="rotate(8, 400, 400)" opacity="0.76"></line><line x1="173.5" y1="400" x2="626.5" y2="400" transform="rotate(9, 400, 400)" opacity="0.53"></line><line x1="145.5" y1="400" x2="654.5" y2="400" transform="rotate(10, 400, 400)" opacity="0.38"></line><line x1="197" y1="400" x2="603" y2="400" transform="rotate(11, 400, 400)" opacity="0.97"></line><line x1="114" y1="400" x2="686" y2="400" transform="rotate(12, 400, 400)" opacity="0.66"></line><line x1="190.5" y1="400" x2="609.5" y2="400" transform="rotate(13, 400, 400)" opacity="0.15"></line><line x1="30" y1="400" x2="770" y2="400" transform="rotate(14, 400, 400)" opacity="0.61"></line><line x1="67" y1="400" x2="733" y2="400" transform="rotate(15, 400, 400)" opacity="0.10"></line><line x1="178.5" y1="400" x2="621.5" y2="400" transform="rotate(16, 400, 400)" opacity="0.22"></line><line x1="91" y1="400" x2="709" y2="400" transform="rotate(17, 400, 400)" opacity="0.66"></line><line x1="149" y1="400" x2="651" y2="400" transform="rotate(18, 400, 400)" opacity="0.34"></line><line x1="121.5" y1="400" x2="678.5" y2="400" transform="rotate(19, 400, 400)" opacity="0.46"></line><line x1="76" y1="400" x2="724" y2="400" transform="rotate(20, 400, 400)" opacity="0.87"></line><line x1="76" y1="400" x2="724" y2="400" transform="rotate(21, 400, 400)" opacity="0.10"></line><line x1="93.5" y1="400" x2="706.5" y2="400" transform="rotate(22, 400, 400)" opacity="0.62"></line><line x1="31.5" y1="400" x2="768.5" y2="400" transform="rotate(23, 400, 400)" opacity="0.75"></line><line x1="196.5" y1="400" x2="603.5" y2="400" transform="rotate(24, 400, 400)" opacity="0.72"></line><line x1="74" y1="400" x2="726" y2="400" transform="rotate(25, 400, 400)" opacity="0.21"></line><line x1="101" y1="400" x2="699" y2="400" transform="rotate(26, 400, 400)" opacity="0.55"></line><line x1="110.5" y1="400" x2="689.5" y2="400" transform="rotate(27, 400, 400)" opacity="0.14"></line><line x1="56" y1="400" x2="744" y2="400" transform="rotate(28, 400, 400)" opacity="0.84"></line><line x1="54" y1="400" x2="746" y2="400" transform="rotate(29, 400, 400)" opacity="0.97"></line><line x1="198.5" y1="400" x2="601.5" y2="400" transform="rotate(30, 400, 400)" opacity="0.23"></line><line x1="121" y1="400" x2="679" y2="400" transform="rotate(31, 400, 400)" opacity="0.38"></line><line x1="148.5" y1="400" x2="651.5" y2="400" transform="rotate(32, 400, 400)" opacity="0.29"></line><line x1="76" y1="400" x2="724" y2="400" transform="rotate(33, 400, 400)" opacity="0.74"></line><line x1="102" y1="400" x2="698" y2="400" transform="rotate(34, 400, 400)" opacity="0.26"></line><line x1="35" y1="400" x2="765" y2="400" transform="rotate(35, 400, 400)" opacity="0.26"></line><line x1="106" y1="400" x2="694" y2="400" transform="rotate(36, 400, 400)" opacity="0.47"></line><line x1="189.5" y1="400" x2="610.5" y2="400" transform="rotate(37, 400, 400)" opacity="0.18"></line><line x1="78.5" y1="400" x2="721.5" y2="400" transform="rotate(38, 400, 400)" opacity="0.17"></line><line x1="193" y1="400" x2="607" y2="400" transform="rotate(39, 400, 400)" opacity="0.08"></line><line x1="59.5" y1="400" x2="740.5" y2="400" transform="rotate(40, 400, 400)" opacity="0.94"></line><line x1="44" y1="400" x2="756" y2="400" transform="rotate(41, 400, 400)" opacity="0.07"></line><line x1="27" y1="400" x2="773" y2="400" transform="rotate(42, 400, 400)" opacity="0.53"></line><line x1="38.5" y1="400" x2="761.5" y2="400" transform="rotate(43, 400, 400)" opacity="0.62"></line><line x1="151.5" y1="400" x2="648.5" y2="400" transform="rotate(44, 400, 400)" opacity="0.49"></line><line x1="97" y1="400" x2="703" y2="400" transform="rotate(45, 400, 400)" opacity="0.49"></line><line x1="34" y1="400" x2="766" y2="400" transform="rotate(46, 400, 400)" opacity="0.76"></line><line x1="96" y1="400" x2="704" y2="400" transform="rotate(47, 400, 400)" opacity="0.85"></line><line x1="159.5" y1="400" x2="640.5" y2="400" transform="rotate(48, 400, 400)" opacity="0.80"></line><line x1="166.5" y1="400" x2="633.5" y2="400" transform="rotate(49, 400, 400)" opacity="0.64"></line><line x1="144.5" y1="400" x2="655.5" y2="400" transform="rotate(50, 400, 400)" opacity="0.72"></line><line x1="189" y1="400" x2="611" y2="400" transform="rotate(51, 400, 400)" opacity="0.15"></line><line x1="33.5" y1="400" x2="766.5" y2="400" transform="rotate(52, 400, 400)" opacity="0.24"></line><line x1="101" y1="400" x2="699" y2="400" transform="rotate(53, 400, 400)" opacity="0.61"></line><line x1="154" y1="400" x2="646" y2="400" transform="rotate(54, 400, 400)" opacity="0.89"></line><line x1="91" y1="400" x2="709" y2="400" transform="rotate(55, 400, 400)" opacity="0.95"></line><line x1="199" y1="400" x2="601" y2="400" transform="rotate(56, 400, 400)" opacity="0.77"></line><line x1="54.5" y1="400" x2="745.5" y2="400" transform="rotate(57, 400, 400)" opacity="0.91"></line><line x1="76.5" y1="400" x2="723.5" y2="400" transform="rotate(58, 400, 400)" opacity="0.69"></line><line x1="131" y1="400" x2="669" y2="400" transform="rotate(59, 400, 400)" opacity="0.63"></line><line x1="28" y1="400" x2="772" y2="400" transform="rotate(60, 400, 400)" opacity="0.38"></line><line x1="81.5" y1="400" x2="718.5" y2="400" transform="rotate(61, 400, 400)" opacity="0.25"></line><line x1="52" y1="400" x2="748" y2="400" transform="rotate(62, 400, 400)" opacity="0.34"></line><line x1="56" y1="400" x2="744" y2="400" transform="rotate(63, 400, 400)" opacity="0.67"></line><line x1="21" y1="400" x2="779" y2="400" transform="rotate(64, 400, 400)" opacity="0.29"></line><line x1="124" y1="400" x2="676" y2="400" transform="rotate(65, 400, 400)" opacity="0.18"></line><line x1="123" y1="400" x2="677" y2="400" transform="rotate(66, 400, 400)" opacity="0.82"></line><line x1="68.5" y1="400" x2="731.5" y2="400" transform="rotate(67, 400, 400)" opacity="0.84"></line><line x1="84" y1="400" x2="716" y2="400" transform="rotate(68, 400, 400)" opacity="0.10"></line><line x1="73" y1="400" x2="727" y2="400" transform="rotate(69, 400, 400)" opacity="0.58"></line><line x1="144.5" y1="400" x2="655.5" y2="400" transform="rotate(70, 400, 400)" opacity="0.44"></line><line x1="111.5" y1="400" x2="688.5" y2="400" transform="rotate(71, 400, 400)" opacity="0.43"></line><line x1="43.5" y1="400" x2="756.5" y2="400" transform="rotate(72, 400, 400)" opacity="0.66"></line><line x1="67" y1="400" x2="733" y2="400" transform="rotate(73, 400, 400)" opacity="0.63"></line><line x1="146" y1="400" x2="654" y2="400" transform="rotate(74, 400, 400)" opacity="0.83"></line><line x1="140.5" y1="400" x2="659.5" y2="400" transform="rotate(75, 400, 400)" opacity="0.31"></line><line x1="137" y1="400" x2="663" y2="400" transform="rotate(76, 400, 400)" opacity="0.47"></line><line x1="80.5" y1="400" x2="719.5" y2="400" transform="rotate(77, 400, 400)" opacity="0.66"></line><line x1="149" y1="400" x2="651" y2="400" transform="rotate(78, 400, 400)" opacity="0.29"></line><line x1="30.5" y1="400" x2="769.5" y2="400" transform="rotate(79, 400, 400)" opacity="0.68"></line><line x1="160.5" y1="400" x2="639.5" y2="400" transform="rotate(80, 400, 400)" opacity="0.24"></line><line x1="51.5" y1="400" x2="748.5" y2="400" transform="rotate(81, 400, 400)" opacity="0.94"></line><line x1="121" y1="400" x2="679" y2="400" transform="rotate(82, 400, 400)" opacity="0.69"></line><line x1="147.5" y1="400" x2="652.5" y2="400" transform="rotate(83, 400, 400)" opacity="0.68"></line><line x1="122.5" y1="400" x2="677.5" y2="400" transform="rotate(84, 400, 400)" opacity="0.34"></line><line x1="23.5" y1="400" x2="776.5" y2="400" transform="rotate(85, 400, 400)" opacity="0.44"></line><line x1="49.5" y1="400" x2="750.5" y2="400" transform="rotate(86, 400, 400)" opacity="0.08"></line><line x1="111" y1="400" x2="689" y2="400" transform="rotate(87, 400, 400)" opacity="0.11"></line><line x1="182.5" y1="400" x2="617.5" y2="400" transform="rotate(88, 400, 400)" opacity="0.76"></line><line x1="43.5" y1="400" x2="756.5" y2="400" transform="rotate(89, 400, 400)" opacity="0.21"></line><line x1="77.5" y1="400" x2="722.5" y2="400" transform="rotate(90, 400, 400)" opacity="0.24"></line><line x1="149.5" y1="400" x2="650.5" y2="400" transform="rotate(91, 400, 400)" opacity="0.86"></line><line x1="139.5" y1="400" x2="660.5" y2="400" transform="rotate(92, 400, 400)" opacity="0.75"></line><line x1="166.5" y1="400" x2="633.5" y2="400" transform="rotate(93, 400, 400)" opacity="0.63"></line><line x1="159.5" y1="400" x2="640.5" y2="400" transform="rotate(94, 400, 400)" opacity="0.54"></line><line x1="140" y1="400" x2="660" y2="400" transform="rotate(95, 400, 400)" opacity="0.95"></line><line x1="45" y1="400" x2="755" y2="400" transform="rotate(96, 400, 400)" opacity="0.65"></line><line x1="107" y1="400" x2="693" y2="400" transform="rotate(97, 400, 400)" opacity="0.46"></line><line x1="52.5" y1="400" x2="747.5" y2="400" transform="rotate(98, 400, 400)" opacity="0.66"></line><line x1="60.5" y1="400" x2="739.5" y2="400" transform="rotate(99, 400, 400)" opacity="0.16"></line><line x1="94" y1="400" x2="706" y2="400" transform="rotate(100, 400, 400)" opacity="0.92"></line><line x1="31" y1="400" x2="769" y2="400" transform="rotate(101, 400, 400)" opacity="0.37"></line><line x1="142" y1="400" x2="658" y2="400" transform="rotate(102, 400, 400)" opacity="0.37"></line><line x1="22" y1="400" x2="778" y2="400" transform="rotate(103, 400, 400)" opacity="0.63"></line><line x1="192" y1="400" x2="608" y2="400" transform="rotate(104, 400, 400)" opacity="0.18"></line><line x1="138.5" y1="400" x2="661.5" y2="400" transform="rotate(105, 400, 400)" opacity="0.86"></line><line x1="198" y1="400" x2="602" y2="400" transform="rotate(106, 400, 400)" opacity="0.14"></line><line x1="176" y1="400" x2="624" y2="400" transform="rotate(107, 400, 400)" opacity="0.23"></line><line x1="112" y1="400" x2="688" y2="400" transform="rotate(108, 400, 400)" opacity="0.55"></line><line x1="114" y1="400" x2="686" y2="400" transform="rotate(109, 400, 400)" opacity="0.42"></line><line x1="93.5" y1="400" x2="706.5" y2="400" transform="rotate(110, 400, 400)" opacity="0.55"></line><line x1="156" y1="400" x2="644" y2="400" transform="rotate(111, 400, 400)" opacity="0.72"></line><line x1="110.5" y1="400" x2="689.5" y2="400" transform="rotate(112, 400, 400)" opacity="0.81"></line><line x1="105.5" y1="400" x2="694.5" y2="400" transform="rotate(113, 400, 400)" opacity="0.28"></line><line x1="130.5" y1="400" x2="669.5" y2="400" transform="rotate(114, 400, 400)" opacity="0.98"></line><line x1="64.5" y1="400" x2="735.5" y2="400" transform="rotate(115, 400, 400)" opacity="0.30"></line><line x1="98.5" y1="400" x2="701.5" y2="400" transform="rotate(116, 400, 400)" opacity="0.29"></line><line x1="62.5" y1="400" x2="737.5" y2="400" transform="rotate(117, 400, 400)" opacity="0.56"></line><line x1="57.5" y1="400" x2="742.5" y2="400" transform="rotate(118, 400, 400)" opacity="0.89"></line><line x1="46" y1="400" x2="754" y2="400" transform="rotate(119, 400, 400)" opacity="0.42"></line><line x1="70" y1="400" x2="730" y2="400" transform="rotate(120, 400, 400)" opacity="0.98"></line><line x1="78.5" y1="400" x2="721.5" y2="400" transform="rotate(121, 400, 400)" opacity="0.09"></line><line x1="43.5" y1="400" x2="756.5" y2="400" transform="rotate(122, 400, 400)" opacity="0.74"></line><line x1="199" y1="400" x2="601" y2="400" transform="rotate(123, 400, 400)" opacity="0.35"></line><line x1="45.5" y1="400" x2="754.5" y2="400" transform="rotate(124, 400, 400)" opacity="0.32"></line><line x1="148" y1="400" x2="652" y2="400" transform="rotate(125, 400, 400)" opacity="1.00"></line><line x1="102.5" y1="400" x2="697.5" y2="400" transform="rotate(126, 400, 400)" opacity="0.73"></line><line x1="57.5" y1="400" x2="742.5" y2="400" transform="rotate(127, 400, 400)" opacity="0.22"></line><line x1="127" y1="400" x2="673" y2="400" transform="rotate(128, 400, 400)" opacity="0.73"></line><line x1="149" y1="400" x2="651" y2="400" transform="rotate(129, 400, 400)" opacity="0.37"></line><line x1="35" y1="400" x2="765" y2="400" transform="rotate(130, 400, 400)" opacity="0.69"></line><line x1="153" y1="400" x2="647" y2="400" transform="rotate(131, 400, 400)" opacity="0.47"></line><line x1="65" y1="400" x2="735" y2="400" transform="rotate(132, 400, 400)" opacity="0.11"></line><line x1="33" y1="400" x2="767" y2="400" transform="rotate(133, 400, 400)" opacity="0.26"></line><line x1="42" y1="400" x2="758" y2="400" transform="rotate(134, 400, 400)" opacity="0.17"></line><line x1="68.5" y1="400" x2="731.5" y2="400" transform="rotate(135, 400, 400)" opacity="0.13"></line><line x1="53" y1="400" x2="747" y2="400" transform="rotate(136, 400, 400)" opacity="0.35"></line><line x1="100" y1="400" x2="700" y2="400" transform="rotate(137, 400, 400)" opacity="0.55"></line><line x1="156" y1="400" x2="644" y2="400" transform="rotate(138, 400, 400)" opacity="0.64"></line><line x1="20" y1="400" x2="780" y2="400" transform="rotate(139, 400, 400)" opacity="0.43"></line><line x1="93" y1="400" x2="707" y2="400" transform="rotate(140, 400, 400)" opacity="0.63"></line><line x1="185" y1="400" x2="615" y2="400" transform="rotate(141, 400, 400)" opacity="0.40"></line><line x1="71" y1="400" x2="729" y2="400" transform="rotate(142, 400, 400)" opacity="0.17"></line><line x1="103.5" y1="400" x2="696.5" y2="400" transform="rotate(143, 400, 400)" opacity="0.29"></line><line x1="83" y1="400" x2="717" y2="400" transform="rotate(144, 400, 400)" opacity="0.92"></line><line x1="147.5" y1="400" x2="652.5" y2="400" transform="rotate(145, 400, 400)" opacity="0.34"></line><line x1="176" y1="400" x2="624" y2="400" transform="rotate(146, 400, 400)" opacity="0.90"></line><line x1="179.5" y1="400" x2="620.5" y2="400" transform="rotate(147, 400, 400)" opacity="0.20"></line><line x1="139.5" y1="400" x2="660.5" y2="400" transform="rotate(148, 400, 400)" opacity="0.71"></line><line x1="175" y1="400" x2="625" y2="400" transform="rotate(149, 400, 400)" opacity="0.53"></line><line x1="113.5" y1="400" x2="686.5" y2="400" transform="rotate(150, 400, 400)" opacity="0.57"></line><line x1="114.5" y1="400" x2="685.5" y2="400" transform="rotate(151, 400, 400)" opacity="0.75"></line><line x1="173.5" y1="400" x2="626.5" y2="400" transform="rotate(152, 400, 400)" opacity="0.98"></line><line x1="139" y1="400" x2="661" y2="400" transform="rotate(153, 400, 400)" opacity="0.78"></line><line x1="182.5" y1="400" x2="617.5" y2="400" transform="rotate(154, 400, 400)" opacity="0.52"></line><line x1="49" y1="400" x2="751" y2="400" transform="rotate(155, 400, 400)" opacity="0.81"></line><line x1="148" y1="400" x2="652" y2="400" transform="rotate(156, 400, 400)" opacity="0.36"></line><line x1="100" y1="400" x2="700" y2="400" transform="rotate(157, 400, 400)" opacity="0.54"></line><line x1="101.5" y1="400" x2="698.5" y2="400" transform="rotate(158, 400, 400)" opacity="0.84"></line><line x1="39.5" y1="400" x2="760.5" y2="400" transform="rotate(159, 400, 400)" opacity="0.17"></line><line x1="121.5" y1="400" x2="678.5" y2="400" transform="rotate(160, 400, 400)" opacity="0.94"></line><line x1="59" y1="400" x2="741" y2="400" transform="rotate(161, 400, 400)" opacity="0.74"></line><line x1="116.5" y1="400" x2="683.5" y2="400" transform="rotate(162, 400, 400)" opacity="0.24"></line><line x1="182.5" y1="400" x2="617.5" y2="400" transform="rotate(163, 400, 400)" opacity="0.88"></line><line x1="64.5" y1="400" x2="735.5" y2="400" transform="rotate(164, 400, 400)" opacity="0.85"></line><line x1="56.5" y1="400" x2="743.5" y2="400" transform="rotate(165, 400, 400)" opacity="0.27"></line><line x1="134" y1="400" x2="666" y2="400" transform="rotate(166, 400, 400)" opacity="0.58"></line><line x1="124" y1="400" x2="676" y2="400" transform="rotate(167, 400, 400)" opacity="0.45"></line><line x1="144.5" y1="400" x2="655.5" y2="400" transform="rotate(168, 400, 400)" opacity="0.86"></line><line x1="60.5" y1="400" x2="739.5" y2="400" transform="rotate(169, 400, 400)" opacity="0.72"></line><line x1="120.5" y1="400" x2="679.5" y2="400" transform="rotate(170, 400, 400)" opacity="0.60"></line><line x1="183.5" y1="400" x2="616.5" y2="400" transform="rotate(171, 400, 400)" opacity="0.28"></line><line x1="178.5" y1="400" x2="621.5" y2="400" transform="rotate(172, 400, 400)" opacity="0.61"></line><line x1="189.5" y1="400" x2="610.5" y2="400" transform="rotate(173, 400, 400)" opacity="0.89"></line><line x1="136" y1="400" x2="664" y2="400" transform="rotate(174, 400, 400)" opacity="0.18"></line><line x1="199" y1="400" x2="601" y2="400" transform="rotate(175, 400, 400)" opacity="0.45"></line><line x1="110" y1="400" x2="690" y2="400" transform="rotate(176, 400, 400)" opacity="0.54"></line><line x1="152" y1="400" x2="648" y2="400" transform="rotate(177, 400, 400)" opacity="0.58"></line><line x1="110.5" y1="400" x2="689.5" y2="400" transform="rotate(178, 400, 400)" opacity="0.90"></line><line x1="91.5" y1="400" x2="708.5" y2="400" transform="rotate(179, 400, 400)" opacity="0.85"></line><line x1="165" y1="400" x2="635" y2="400" transform="rotate(180, 400, 400)" opacity="0.34"></line><line x1="24.5" y1="400" x2="775.5" y2="400" transform="rotate(181, 400, 400)" opacity="0.23"></line><line x1="113.5" y1="400" x2="686.5" y2="400" transform="rotate(182, 400, 400)" opacity="0.24"></line><line x1="32" y1="400" x2="768" y2="400" transform="rotate(183, 400, 400)" opacity="0.51"></line><line x1="123.5" y1="400" x2="676.5" y2="400" transform="rotate(184, 400, 400)" opacity="0.41"></line><line x1="102.5" y1="400" x2="697.5" y2="400" transform="rotate(185, 400, 400)" opacity="0.53"></line><line x1="143.5" y1="400" x2="656.5" y2="400" transform="rotate(186, 400, 400)" opacity="0.18"></line><line x1="45" y1="400" x2="755" y2="400" transform="rotate(187, 400, 400)" opacity="0.64"></line><line x1="86.5" y1="400" x2="713.5" y2="400" transform="rotate(188, 400, 400)" opacity="0.98"></line><line x1="193" y1="400" x2="607" y2="400" transform="rotate(189, 400, 400)" opacity="0.67"></line><line x1="118" y1="400" x2="682" y2="400" transform="rotate(190, 400, 400)" opacity="0.27"></line><line x1="182" y1="400" x2="618" y2="400" transform="rotate(191, 400, 400)" opacity="0.38"></line><line x1="97" y1="400" x2="703" y2="400" transform="rotate(192, 400, 400)" opacity="0.18"></line><line x1="110.5" y1="400" x2="689.5" y2="400" transform="rotate(193, 400, 400)" opacity="0.88"></line><line x1="198" y1="400" x2="602" y2="400" transform="rotate(194, 400, 400)" opacity="0.55"></line><line x1="29.5" y1="400" x2="770.5" y2="400" transform="rotate(195, 400, 400)" opacity="0.70"></line><line x1="177.5" y1="400" x2="622.5" y2="400" transform="rotate(196, 400, 400)" opacity="0.37"></line><line x1="89" y1="400" x2="711" y2="400" transform="rotate(197, 400, 400)" opacity="0.37"></line><line x1="142.5" y1="400" x2="657.5" y2="400" transform="rotate(198, 400, 400)" opacity="0.26"></line><line x1="21" y1="400" x2="779" y2="400" transform="rotate(199, 400, 400)" opacity="0.24"></line><line x1="180" y1="400" x2="620" y2="400" transform="rotate(200, 400, 400)" opacity="0.56"></line><line x1="55" y1="400" x2="745" y2="400" transform="rotate(201, 400, 400)" opacity="0.26"></line><line x1="170.5" y1="400" x2="629.5" y2="400" transform="rotate(202, 400, 400)" opacity="0.90"></line><line x1="69" y1="400" x2="731" y2="400" transform="rotate(203, 400, 400)" opacity="0.56"></line><line x1="151.5" y1="400" x2="648.5" y2="400" transform="rotate(204, 400, 400)" opacity="0.65"></line><line x1="148" y1="400" x2="652" y2="400" transform="rotate(205, 400, 400)" opacity="0.58"></line><line x1="64.5" y1="400" x2="735.5" y2="400" transform="rotate(206, 400, 400)" opacity="0.08"></line><line x1="27" y1="400" x2="773" y2="400" transform="rotate(207, 400, 400)" opacity="0.59"></line><line x1="147.5" y1="400" x2="652.5" y2="400" transform="rotate(208, 400, 400)" opacity="0.97"></line><line x1="125.5" y1="400" x2="674.5" y2="400" transform="rotate(209, 400, 400)" opacity="0.56"></line><line x1="22.5" y1="400" x2="777.5" y2="400" transform="rotate(210, 400, 400)" opacity="0.27"></line><line x1="35.5" y1="400" x2="764.5" y2="400" transform="rotate(211, 400, 400)" opacity="0.09"></line><line x1="85" y1="400" x2="715" y2="400" transform="rotate(212, 400, 400)" opacity="0.91"></line><line x1="70.5" y1="400" x2="729.5" y2="400" transform="rotate(213, 400, 400)" opacity="0.21"></line><line x1="65.5" y1="400" x2="734.5" y2="400" transform="rotate(214, 400, 400)" opacity="0.32"></line><line x1="175" y1="400" x2="625" y2="400" transform="rotate(215, 400, 400)" opacity="0.74"></line><line x1="160" y1="400" x2="640" y2="400" transform="rotate(216, 400, 400)" opacity="0.17"></line><line x1="54.5" y1="400" x2="745.5" y2="400" transform="rotate(217, 400, 400)" opacity="0.32"></line><line x1="197.5" y1="400" x2="602.5" y2="400" transform="rotate(218, 400, 400)" opacity="0.90"></line><line x1="158.5" y1="400" x2="641.5" y2="400" transform="rotate(219, 400, 400)" opacity="0.58"></line><line x1="78.5" y1="400" x2="721.5" y2="400" transform="rotate(220, 400, 400)" opacity="0.91"></line><line x1="124" y1="400" x2="676" y2="400" transform="rotate(221, 400, 400)" opacity="0.25"></line><line x1="157" y1="400" x2="643" y2="400" transform="rotate(222, 400, 400)" opacity="0.66"></line><line x1="24.5" y1="400" x2="775.5" y2="400" transform="rotate(223, 400, 400)" opacity="0.18"></line><line x1="94.5" y1="400" x2="705.5" y2="400" transform="rotate(224, 400, 400)" opacity="0.79"></line><line x1="60.5" y1="400" x2="739.5" y2="400" transform="rotate(225, 400, 400)" opacity="0.10"></line><line x1="30.5" y1="400" x2="769.5" y2="400" transform="rotate(226, 400, 400)" opacity="0.18"></line><line x1="63" y1="400" x2="737" y2="400" transform="rotate(227, 400, 400)" opacity="0.22"></line><line x1="37.5" y1="400" x2="762.5" y2="400" transform="rotate(228, 400, 400)" opacity="0.77"></line><line x1="87" y1="400" x2="713" y2="400" transform="rotate(229, 400, 400)" opacity="0.14"></line><line x1="55" y1="400" x2="745" y2="400" transform="rotate(230, 400, 400)" opacity="0.86"></line><line x1="63.5" y1="400" x2="736.5" y2="400" transform="rotate(231, 400, 400)" opacity="0.82"></line><line x1="111.5" y1="400" x2="688.5" y2="400" transform="rotate(232, 400, 400)" opacity="0.51"></line><line x1="103" y1="400" x2="697" y2="400" transform="rotate(233, 400, 400)" opacity="0.65"></line><line x1="83.5" y1="400" x2="716.5" y2="400" transform="rotate(234, 400, 400)" opacity="0.25"></line><line x1="80" y1="400" x2="720" y2="400" transform="rotate(235, 400, 400)" opacity="0.37"></line><line x1="48.5" y1="400" x2="751.5" y2="400" transform="rotate(236, 400, 400)" opacity="0.46"></line><line x1="105.5" y1="400" x2="694.5" y2="400" transform="rotate(237, 400, 400)" opacity="0.13"></line><line x1="106" y1="400" x2="694" y2="400" transform="rotate(238, 400, 400)" opacity="0.66"></line><line x1="182" y1="400" x2="618" y2="400" transform="rotate(239, 400, 400)" opacity="0.21"></line><line x1="168" y1="400" x2="632" y2="400" transform="rotate(240, 400, 400)" opacity="0.36"></line><line x1="59" y1="400" x2="741" y2="400" transform="rotate(241, 400, 400)" opacity="0.12"></line><line x1="91" y1="400" x2="709" y2="400" transform="rotate(242, 400, 400)" opacity="0.40"></line><line x1="74.5" y1="400" x2="725.5" y2="400" transform="rotate(243, 400, 400)" opacity="0.79"></line><line x1="50.5" y1="400" x2="749.5" y2="400" transform="rotate(244, 400, 400)" opacity="0.54"></line><line x1="109" y1="400" x2="691" y2="400" transform="rotate(245, 400, 400)" opacity="0.76"></line><line x1="40.5" y1="400" x2="759.5" y2="400" transform="rotate(246, 400, 400)" opacity="0.54"></line><line x1="45.5" y1="400" x2="754.5" y2="400" transform="rotate(247, 400, 400)" opacity="0.15"></line><line x1="47" y1="400" x2="753" y2="400" transform="rotate(248, 400, 400)" opacity="0.13"></line><line x1="35.5" y1="400" x2="764.5" y2="400" transform="rotate(249, 400, 400)" opacity="0.51"></line><line x1="99.5" y1="400" x2="700.5" y2="400" transform="rotate(250, 400, 400)" opacity="0.73"></line><line x1="31.5" y1="400" x2="768.5" y2="400" transform="rotate(251, 400, 400)" opacity="0.32"></line><line x1="137" y1="400" x2="663" y2="400" transform="rotate(252, 400, 400)" opacity="0.86"></line><line x1="137.5" y1="400" x2="662.5" y2="400" transform="rotate(253, 400, 400)" opacity="0.61"></line><line x1="171" y1="400" x2="629" y2="400" transform="rotate(254, 400, 400)" opacity="0.66"></line><line x1="51.5" y1="400" x2="748.5" y2="400" transform="rotate(255, 400, 400)" opacity="0.93"></line><line x1="99" y1="400" x2="701" y2="400" transform="rotate(256, 400, 400)" opacity="0.24"></line><line x1="27" y1="400" x2="773" y2="400" transform="rotate(257, 400, 400)" opacity="0.22"></line><line x1="194" y1="400" x2="606" y2="400" transform="rotate(258, 400, 400)" opacity="0.78"></line><line x1="78" y1="400" x2="722" y2="400" transform="rotate(259, 400, 400)" opacity="0.73"></line><line x1="20.5" y1="400" x2="779.5" y2="400" transform="rotate(260, 400, 400)" opacity="0.84"></line><line x1="60" y1="400" x2="740" y2="400" transform="rotate(261, 400, 400)" opacity="0.98"></line><line x1="162.5" y1="400" x2="637.5" y2="400" transform="rotate(262, 400, 400)" opacity="0.37"></line><line x1="127.5" y1="400" x2="672.5" y2="400" transform="rotate(263, 400, 400)" opacity="0.55"></line><line x1="89" y1="400" x2="711" y2="400" transform="rotate(264, 400, 400)" opacity="0.27"></line><line x1="153" y1="400" x2="647" y2="400" transform="rotate(265, 400, 400)" opacity="0.58"></line><line x1="197.5" y1="400" x2="602.5" y2="400" transform="rotate(266, 400, 400)" opacity="0.23"></line><line x1="70" y1="400" x2="730" y2="400" transform="rotate(267, 400, 400)" opacity="0.40"></line><line x1="91" y1="400" x2="709" y2="400" transform="rotate(268, 400, 400)" opacity="0.24"></line><line x1="165.5" y1="400" x2="634.5" y2="400" transform="rotate(269, 400, 400)" opacity="0.94"></line><line x1="30" y1="400" x2="770" y2="400" transform="rotate(270, 400, 400)" opacity="0.67"></line><line x1="24" y1="400" x2="776" y2="400" transform="rotate(271, 400, 400)" opacity="0.92"></line><line x1="31" y1="400" x2="769" y2="400" transform="rotate(272, 400, 400)" opacity="0.09"></line><line x1="25" y1="400" x2="775" y2="400" transform="rotate(273, 400, 400)" opacity="0.41"></line><line x1="181.5" y1="400" x2="618.5" y2="400" transform="rotate(274, 400, 400)" opacity="0.81"></line><line x1="190" y1="400" x2="610" y2="400" transform="rotate(275, 400, 400)" opacity="0.83"></line><line x1="116.5" y1="400" x2="683.5" y2="400" transform="rotate(276, 400, 400)" opacity="0.07"></line><line x1="36.5" y1="400" x2="763.5" y2="400" transform="rotate(277, 400, 400)" opacity="0.35"></line><line x1="101" y1="400" x2="699" y2="400" transform="rotate(278, 400, 400)" opacity="0.91"></line><line x1="82.5" y1="400" x2="717.5" y2="400" transform="rotate(279, 400, 400)" opacity="0.77"></line><line x1="168" y1="400" x2="632" y2="400" transform="rotate(280, 400, 400)" opacity="0.08"></line><line x1="102.5" y1="400" x2="697.5" y2="400" transform="rotate(281, 400, 400)" opacity="0.64"></line><line x1="49" y1="400" x2="751" y2="400" transform="rotate(282, 400, 400)" opacity="0.98"></line><line x1="184" y1="400" x2="616" y2="400" transform="rotate(283, 400, 400)" opacity="0.83"></line><line x1="82.5" y1="400" x2="717.5" y2="400" transform="rotate(284, 400, 400)" opacity="0.77"></line><line x1="131.5" y1="400" x2="668.5" y2="400" transform="rotate(285, 400, 400)" opacity="0.87"></line><line x1="82" y1="400" x2="718" y2="400" transform="rotate(286, 400, 400)" opacity="0.61"></line><line x1="66.5" y1="400" x2="733.5" y2="400" transform="rotate(287, 400, 400)" opacity="0.38"></line><line x1="138.5" y1="400" x2="661.5" y2="400" transform="rotate(288, 400, 400)" opacity="0.50"></line><line x1="117.5" y1="400" x2="682.5" y2="400" transform="rotate(289, 400, 400)" opacity="0.73"></line><line x1="137.5" y1="400" x2="662.5" y2="400" transform="rotate(290, 400, 400)" opacity="0.72"></line><line x1="125.5" y1="400" x2="674.5" y2="400" transform="rotate(291, 400, 400)" opacity="0.52"></line><line x1="77" y1="400" x2="723" y2="400" transform="rotate(292, 400, 400)" opacity="0.42"></line><line x1="107.5" y1="400" x2="692.5" y2="400" transform="rotate(293, 400, 400)" opacity="0.10"></line><line x1="184.5" y1="400" x2="615.5" y2="400" transform="rotate(294, 400, 400)" opacity="0.87"></line><line x1="150.5" y1="400" x2="649.5" y2="400" transform="rotate(295, 400, 400)" opacity="0.98"></line><line x1="124.5" y1="400" x2="675.5" y2="400" transform="rotate(296, 400, 400)" opacity="0.27"></line><line x1="58.5" y1="400" x2="741.5" y2="400" transform="rotate(297, 400, 400)" opacity="0.24"></line><line x1="78.5" y1="400" x2="721.5" y2="400" transform="rotate(298, 400, 400)" opacity="0.86"></line><line x1="94" y1="400" x2="706" y2="400" transform="rotate(299, 400, 400)" opacity="0.89"></line><line x1="84" y1="400" x2="716" y2="400" transform="rotate(300, 400, 400)" opacity="0.82"></line><line x1="151.5" y1="400" x2="648.5" y2="400" transform="rotate(301, 400, 400)" opacity="0.19"></line><line x1="122.5" y1="400" x2="677.5" y2="400" transform="rotate(302, 400, 400)" opacity="0.31"></line><line x1="110" y1="400" x2="690" y2="400" transform="rotate(303, 400, 400)" opacity="0.69"></line><line x1="76.5" y1="400" x2="723.5" y2="400" transform="rotate(304, 400, 400)" opacity="0.14"></line><line x1="48" y1="400" x2="752" y2="400" transform="rotate(305, 400, 400)" opacity="0.42"></line><line x1="66.5" y1="400" x2="733.5" y2="400" transform="rotate(306, 400, 400)" opacity="0.38"></line><line x1="187" y1="400" x2="613" y2="400" transform="rotate(307, 400, 400)" opacity="0.53"></line><line x1="132" y1="400" x2="668" y2="400" transform="rotate(308, 400, 400)" opacity="0.79"></line><line x1="170" y1="400" x2="630" y2="400" transform="rotate(309, 400, 400)" opacity="0.76"></line><line x1="182.5" y1="400" x2="617.5" y2="400" transform="rotate(310, 400, 400)" opacity="0.80"></line><line x1="120.5" y1="400" x2="679.5" y2="400" transform="rotate(311, 400, 400)" opacity="0.72"></line><line x1="99" y1="400" x2="701" y2="400" transform="rotate(312, 400, 400)" opacity="0.58"></line><line x1="30" y1="400" x2="770" y2="400" transform="rotate(313, 400, 400)" opacity="0.36"></line><line x1="97.5" y1="400" x2="702.5" y2="400" transform="rotate(314, 400, 400)" opacity="0.98"></line><line x1="111.5" y1="400" x2="688.5" y2="400" transform="rotate(315, 400, 400)" opacity="0.85"></line><line x1="178" y1="400" x2="622" y2="400" transform="rotate(316, 400, 400)" opacity="0.46"></line><line x1="169" y1="400" x2="631" y2="400" transform="rotate(317, 400, 400)" opacity="0.97"></line><line x1="76" y1="400" x2="724" y2="400" transform="rotate(318, 400, 400)" opacity="0.08"></line><line x1="57" y1="400" x2="743" y2="400" transform="rotate(319, 400, 400)" opacity="0.31"></line><line x1="99" y1="400" x2="701" y2="400" transform="rotate(320, 400, 400)" opacity="0.67"></line><line x1="68" y1="400" x2="732" y2="400" transform="rotate(321, 400, 400)" opacity="0.73"></line><line x1="108" y1="400" x2="692" y2="400" transform="rotate(322, 400, 400)" opacity="0.24"></line><line x1="114" y1="400" x2="686" y2="400" transform="rotate(323, 400, 400)" opacity="0.72"></line><line x1="192" y1="400" x2="608" y2="400" transform="rotate(324, 400, 400)" opacity="0.77"></line><line x1="54" y1="400" x2="746" y2="400" transform="rotate(325, 400, 400)" opacity="0.52"></line><line x1="32" y1="400" x2="768" y2="400" transform="rotate(326, 400, 400)" opacity="0.39"></line><line x1="121" y1="400" x2="679" y2="400" transform="rotate(327, 400, 400)" opacity="0.69"></line><line x1="41" y1="400" x2="759" y2="400" transform="rotate(328, 400, 400)" opacity="0.67"></line><line x1="140" y1="400" x2="660" y2="400" transform="rotate(329, 400, 400)" opacity="0.32"></line><line x1="160.5" y1="400" x2="639.5" y2="400" transform="rotate(330, 400, 400)" opacity="0.25"></line><line x1="81.5" y1="400" x2="718.5" y2="400" transform="rotate(331, 400, 400)" opacity="0.70"></line><line x1="87.5" y1="400" x2="712.5" y2="400" transform="rotate(332, 400, 400)" opacity="0.70"></line></g></svg>